<mxfile host="app.diagrams.net" modified="2024-03-03T20:42:13.151Z" agent="Mozilla/5.0 (Windows NT 10.0; Win64; x64) AppleWebKit/537.36 (KHTML, like Gecko) Chrome/122.0.0.0 Safari/537.36 Edg/122.0.0.0" etag="x5w5ijg5-0XzhVOSAMIw" version="24.0.1" type="github">
  <diagram name="Page-1" id="64c3da0e-402f-94eb-ee01-a36477274f13">
    <mxGraphModel dx="1760" dy="1046" grid="1" gridSize="6" guides="1" tooltips="1" connect="1" arrows="1" fold="1" page="1" pageScale="1" pageWidth="1169" pageHeight="827" background="none" math="0" shadow="0">
      <root>
        <mxCell id="0" />
        <mxCell id="1" parent="0" />
        <mxCell id="2" value="CastIron Replacement   " style="whiteSpace=wrap;rounded=1;shadow=1;fillColor=#10739E;strokeColor=none;fontColor=#FFFFFF;fontStyle=1;fontSize=30;" parent="1" vertex="1">
          <mxGeometry x="720" y="10" width="450" height="90" as="geometry" />
        </mxCell>
        <mxCell id="3" value="gs-application-decision-service" style="whiteSpace=wrap;rounded=1;fillColor=#F2931E;strokeColor=none;shadow=1;fontColor=#FFFFFF;fontStyle=1;fontSize=14" parent="1" vertex="1">
          <mxGeometry x="70" y="201" width="230" height="85" as="geometry" />
        </mxCell>
        <mxCell id="4" value=" Devops Changes (Retire NGINX)" style="whiteSpace=wrap;rounded=1;fillColor=#F2931E;strokeColor=none;shadow=1;fontColor=#FFFFFF;fontStyle=1;fontSize=14" parent="1" vertex="1">
          <mxGeometry x="440" y="204" width="280" height="80" as="geometry" />
        </mxCell>
        <mxCell id="43" value="Migrate Kong Mapping to APIGW" style="whiteSpace=wrap;rounded=1;fillColor=#12AAB5;strokeColor=none;shadow=1;fontColor=#FFFFFF;" parent="1" vertex="1">
          <mxGeometry x="404" y="321" width="170" height="60" as="geometry" />
        </mxCell>
        <mxCell id="44" value="Remove Kong Reference to NGINX" style="whiteSpace=wrap;rounded=1;fillColor=#12AAB5;strokeColor=none;shadow=1;fontColor=#FFFFFF;" parent="1" vertex="1">
          <mxGeometry x="587" y="321" width="155" height="60" as="geometry" />
        </mxCell>
        <mxCell id="45" value="applicationvalidation" style="whiteSpace=wrap;rounded=1;fillColor=#999999;strokeColor=none;shadow=1;fontColor=#FFFFFF;fontStyle=0" parent="1" vertex="1">
          <mxGeometry x="404" y="421" width="135" height="50" as="geometry" />
        </mxCell>
        <mxCell id="46" value="loanagreement" style="whiteSpace=wrap;rounded=1;fillColor=#999999;strokeColor=none;shadow=1;fontColor=#FFFFFF;fontStyle=0" parent="1" vertex="1">
          <mxGeometry x="404" y="501" width="135" height="50" as="geometry" />
        </mxCell>
        <mxCell id="47" value="updateaccount" style="whiteSpace=wrap;rounded=1;fillColor=#999999;strokeColor=none;shadow=1;fontColor=#FFFFFF;fontStyle=0" parent="1" vertex="1">
          <mxGeometry x="404" y="581" width="135" height="50" as="geometry" />
        </mxCell>
        <mxCell id="48" value="updateaddress" style="whiteSpace=wrap;rounded=1;fillColor=#999999;strokeColor=none;shadow=1;fontColor=#FFFFFF;fontStyle=0" parent="1" vertex="1">
          <mxGeometry x="404" y="661" width="135" height="50" as="geometry" />
        </mxCell>
        <mxCell id="50" value="applicationvalidation" style="whiteSpace=wrap;rounded=1;fillColor=#999999;strokeColor=none;shadow=1;fontColor=#FFFFFF;fontStyle=0" parent="1" vertex="1">
          <mxGeometry x="604" y="421" width="135" height="50" as="geometry" />
        </mxCell>
        <mxCell id="51" value="loanagreement" style="whiteSpace=wrap;rounded=1;fillColor=#999999;strokeColor=none;shadow=1;fontColor=#FFFFFF;fontStyle=0" parent="1" vertex="1">
          <mxGeometry x="604" y="501" width="135" height="50" as="geometry" />
        </mxCell>
        <mxCell id="52" value="updateaccount" style="whiteSpace=wrap;rounded=1;fillColor=#999999;strokeColor=none;shadow=1;fontColor=#FFFFFF;fontStyle=0" parent="1" vertex="1">
          <mxGeometry x="604" y="581" width="135" height="50" as="geometry" />
        </mxCell>
        <mxCell id="53" value="updateaddress" style="whiteSpace=wrap;rounded=1;fillColor=#999999;strokeColor=none;shadow=1;fontColor=#FFFFFF;fontStyle=0" parent="1" vertex="1">
          <mxGeometry x="604" y="661" width="135" height="50" as="geometry" />
        </mxCell>
        <mxCell id="105" value="" style="edgeStyle=elbowEdgeStyle;elbow=horizontal;rounded=0;fontColor=#000000;endArrow=none;endFill=0;strokeWidth=3;strokeColor=#23445D;" parent="1" edge="1">
          <mxGeometry width="100" height="100" relative="1" as="geometry">
            <mxPoint x="70" y="238" as="sourcePoint" />
            <mxPoint x="70" y="338" as="targetPoint" />
            <Array as="points">
              <mxPoint x="50" y="288" />
            </Array>
          </mxGeometry>
        </mxCell>
        <mxCell id="106" value="" style="edgeStyle=elbowEdgeStyle;elbow=horizontal;rounded=0;fontColor=#000000;endArrow=none;endFill=0;strokeWidth=3;strokeColor=#23445D;" parent="1" edge="1">
          <mxGeometry width="100" height="100" relative="1" as="geometry">
            <mxPoint x="70" y="238" as="sourcePoint" />
            <mxPoint x="70" y="418" as="targetPoint" />
            <Array as="points">
              <mxPoint x="50" y="308" />
            </Array>
          </mxGeometry>
        </mxCell>
        <mxCell id="107" value="" style="edgeStyle=elbowEdgeStyle;elbow=horizontal;rounded=0;fontColor=#000000;endArrow=none;endFill=0;strokeWidth=3;strokeColor=#23445D;" parent="1" edge="1">
          <mxGeometry width="100" height="100" relative="1" as="geometry">
            <mxPoint x="70" y="238" as="sourcePoint" />
            <mxPoint x="70.00000000000045" y="658" as="targetPoint" />
            <Array as="points">
              <mxPoint x="50" y="448" />
            </Array>
          </mxGeometry>
        </mxCell>
        <mxCell id="109" value="" style="edgeStyle=elbowEdgeStyle;elbow=horizontal;rounded=0;fontColor=#000000;endArrow=none;endFill=0;strokeWidth=3;strokeColor=#23445D;" parent="1" edge="1">
          <mxGeometry width="100" height="100" relative="1" as="geometry">
            <mxPoint x="70" y="238" as="sourcePoint" />
            <mxPoint x="70.00000000000023" y="578" as="targetPoint" />
            <Array as="points">
              <mxPoint x="50" y="318" />
            </Array>
          </mxGeometry>
        </mxCell>
        <mxCell id="110" value="" style="edgeStyle=elbowEdgeStyle;elbow=horizontal;rounded=0;fontColor=#000000;endArrow=none;endFill=0;strokeWidth=3;strokeColor=#23445D;" parent="1" edge="1">
          <mxGeometry width="100" height="100" relative="1" as="geometry">
            <mxPoint x="50" y="236" as="sourcePoint" />
            <mxPoint x="70" y="498" as="targetPoint" />
            <Array as="points">
              <mxPoint x="50" y="338" />
            </Array>
          </mxGeometry>
        </mxCell>
        <mxCell id="116" value="" style="edgeStyle=elbowEdgeStyle;elbow=vertical;rounded=0;fontColor=#000000;endArrow=none;endFill=0;strokeWidth=3;strokeColor=#23445D;entryX=0.435;entryY=-0.034;entryDx=0;entryDy=0;entryPerimeter=0;" parent="1" target="43" edge="1">
          <mxGeometry width="100" height="100" relative="1" as="geometry">
            <mxPoint x="579" y="284" as="sourcePoint" />
            <mxPoint x="480" y="311" as="targetPoint" />
            <Array as="points">
              <mxPoint x="530" y="304" />
            </Array>
          </mxGeometry>
        </mxCell>
        <mxCell id="117" value="" style="edgeStyle=elbowEdgeStyle;elbow=vertical;rounded=0;fontColor=#000000;endArrow=none;endFill=0;strokeWidth=3;strokeColor=#23445D;" parent="1" edge="1">
          <mxGeometry width="100" height="100" relative="1" as="geometry">
            <mxPoint x="579" y="285" as="sourcePoint" />
            <mxPoint x="677.72" y="323" as="targetPoint" />
          </mxGeometry>
        </mxCell>
        <mxCell id="118" value="" style="edgeStyle=elbowEdgeStyle;elbow=horizontal;rounded=0;fontColor=#000000;endArrow=none;endFill=0;strokeWidth=3;strokeColor=#23445D;" parent="1" edge="1">
          <mxGeometry width="100" height="100" relative="1" as="geometry">
            <mxPoint x="405" y="351" as="sourcePoint" />
            <mxPoint x="405" y="446" as="targetPoint" />
            <Array as="points">
              <mxPoint x="385" y="401" />
            </Array>
          </mxGeometry>
        </mxCell>
        <mxCell id="119" value="" style="edgeStyle=elbowEdgeStyle;elbow=horizontal;rounded=0;fontColor=#000000;endArrow=none;endFill=0;strokeWidth=3;strokeColor=#23445D;" parent="1" edge="1">
          <mxGeometry width="100" height="100" relative="1" as="geometry">
            <mxPoint x="405" y="351" as="sourcePoint" />
            <mxPoint x="405" y="526" as="targetPoint" />
            <Array as="points">
              <mxPoint x="385" y="441" />
            </Array>
          </mxGeometry>
        </mxCell>
        <mxCell id="121" value="" style="edgeStyle=elbowEdgeStyle;elbow=horizontal;rounded=0;fontColor=#000000;endArrow=none;endFill=0;strokeWidth=3;strokeColor=#23445D;" parent="1" edge="1">
          <mxGeometry width="100" height="100" relative="1" as="geometry">
            <mxPoint x="405" y="351" as="sourcePoint" />
            <mxPoint x="405" y="686" as="targetPoint" />
            <Array as="points">
              <mxPoint x="385" y="521" />
            </Array>
          </mxGeometry>
        </mxCell>
        <mxCell id="122" value="" style="edgeStyle=elbowEdgeStyle;elbow=horizontal;rounded=0;fontColor=#000000;endArrow=none;endFill=0;strokeWidth=3;strokeColor=#23445D;exitX=0;exitY=0.5;exitDx=0;exitDy=0;" parent="1" source="43" edge="1">
          <mxGeometry width="100" height="100" relative="1" as="geometry">
            <mxPoint x="405" y="351" as="sourcePoint" />
            <mxPoint x="405" y="606" as="targetPoint" />
            <Array as="points">
              <mxPoint x="385" y="491" />
            </Array>
          </mxGeometry>
        </mxCell>
        <mxCell id="123" value="" style="edgeStyle=elbowEdgeStyle;elbow=horizontal;rounded=0;fontColor=#000000;endArrow=none;endFill=0;strokeWidth=3;strokeColor=#23445D;entryX=1;entryY=0.5;entryDx=0;entryDy=0;exitX=1;exitY=0.5;exitDx=0;exitDy=0;" parent="1" edge="1">
          <mxGeometry width="100" height="100" relative="1" as="geometry">
            <mxPoint x="744" y="351" as="sourcePoint" />
            <mxPoint x="739" y="446" as="targetPoint" />
            <Array as="points">
              <mxPoint x="759" y="401" />
            </Array>
          </mxGeometry>
        </mxCell>
        <mxCell id="124" value="" style="edgeStyle=elbowEdgeStyle;elbow=horizontal;rounded=0;fontColor=#000000;endArrow=none;endFill=0;strokeWidth=3;strokeColor=#23445D;entryX=1;entryY=0.5;entryDx=0;entryDy=0;" parent="1" target="51" edge="1">
          <mxGeometry width="100" height="100" relative="1" as="geometry">
            <mxPoint x="749" y="351" as="sourcePoint" />
            <mxPoint x="778.9999999999995" y="531" as="targetPoint" />
            <Array as="points">
              <mxPoint x="759" y="441" />
            </Array>
          </mxGeometry>
        </mxCell>
        <mxCell id="126" value="" style="edgeStyle=elbowEdgeStyle;elbow=horizontal;rounded=0;fontColor=#000000;endArrow=none;endFill=0;strokeWidth=3;strokeColor=#23445D;entryX=1;entryY=0.5;entryDx=0;entryDy=0;exitX=1;exitY=0.5;exitDx=0;exitDy=0;" parent="1" edge="1">
          <mxGeometry width="100" height="100" relative="1" as="geometry">
            <mxPoint x="743" y="351" as="sourcePoint" />
            <mxPoint x="738" y="686" as="targetPoint" />
            <Array as="points">
              <mxPoint x="759" y="521" />
            </Array>
          </mxGeometry>
        </mxCell>
        <mxCell id="127" value="" style="edgeStyle=elbowEdgeStyle;elbow=horizontal;rounded=0;fontColor=#000000;endArrow=none;endFill=0;strokeWidth=3;strokeColor=#23445D;exitX=1;exitY=0.5;exitDx=0;exitDy=0;entryX=1;entryY=0.5;entryDx=0;entryDy=0;" parent="1" edge="1">
          <mxGeometry width="100" height="100" relative="1" as="geometry">
            <mxPoint x="745" y="351" as="sourcePoint" />
            <mxPoint x="740" y="606" as="targetPoint" />
            <Array as="points">
              <mxPoint x="760" y="491" />
            </Array>
          </mxGeometry>
        </mxCell>
        <mxCell id="229" value="" style="edgeStyle=elbowEdgeStyle;elbow=vertical;rounded=0;fontColor=#000000;endArrow=none;endFill=0;strokeWidth=3;strokeColor=#23445D;fontSize=11;jumpSize=6;entryX=0.5;entryY=0;entryDx=0;entryDy=0;" parent="1" edge="1">
          <mxGeometry width="100" height="100" relative="1" as="geometry">
            <mxPoint x="945" y="110" as="sourcePoint" />
            <mxPoint x="185" y="203" as="targetPoint" />
          </mxGeometry>
        </mxCell>
        <mxCell id="230" value="" style="edgeStyle=elbowEdgeStyle;elbow=vertical;rounded=0;fontColor=#000000;endArrow=none;endFill=0;strokeWidth=3;strokeColor=#23445D;entryX=0.5;entryY=0;entryDx=0;entryDy=0;exitX=0.5;exitY=1;exitDx=0;exitDy=0;" parent="1" edge="1">
          <mxGeometry width="100" height="100" relative="1" as="geometry">
            <mxPoint x="945" y="99" as="sourcePoint" />
            <mxPoint x="580" y="207" as="targetPoint" />
            <Array as="points">
              <mxPoint x="580" y="157" />
            </Array>
          </mxGeometry>
        </mxCell>
        <mxCell id="231" value="" style="edgeStyle=elbowEdgeStyle;elbow=vertical;rounded=0;fontColor=#000000;endArrow=none;endFill=0;strokeWidth=3;strokeColor=#23445D;entryX=0.5;entryY=0;entryDx=0;entryDy=0;exitX=0.5;exitY=1;exitDx=0;exitDy=0;" parent="1" edge="1">
          <mxGeometry width="100" height="100" relative="1" as="geometry">
            <mxPoint x="945" y="102" as="sourcePoint" />
            <mxPoint x="995" y="207" as="targetPoint" />
            <Array as="points">
              <mxPoint x="1080" y="157" />
            </Array>
          </mxGeometry>
        </mxCell>
        <mxCell id="232" value="" style="edgeStyle=elbowEdgeStyle;elbow=vertical;rounded=0;fontColor=#000000;endArrow=none;endFill=0;strokeWidth=3;strokeColor=#23445D;entryX=0.5;entryY=0;entryDx=0;entryDy=0;fontStyle=1;exitX=0.5;exitY=1;exitDx=0;exitDy=0;" parent="1" edge="1">
          <mxGeometry width="100" height="100" relative="1" as="geometry">
            <mxPoint x="945" y="102" as="sourcePoint" />
            <mxPoint x="1345" y="203" as="targetPoint" />
            <Array as="points">
              <mxPoint x="1260" y="157" />
            </Array>
          </mxGeometry>
        </mxCell>
        <mxCell id="LORdBim5rndGrAHslI9i-234" value="applicationvalidation &#xa;GET end point" style="whiteSpace=wrap;rounded=1;fillColor=#12AAB5;strokeColor=none;shadow=1;fontColor=#FFFFFF;" vertex="1" parent="1">
          <mxGeometry x="70" y="306" width="230" height="60" as="geometry" />
        </mxCell>
        <mxCell id="LORdBim5rndGrAHslI9i-235" value="applicationvalidation &#xa;POST end point" style="whiteSpace=wrap;rounded=1;fillColor=#12AAB5;strokeColor=none;shadow=1;fontColor=#FFFFFF;" vertex="1" parent="1">
          <mxGeometry x="70" y="388" width="230" height="60" as="geometry" />
        </mxCell>
        <mxCell id="LORdBim5rndGrAHslI9i-236" value="loanagreement&#xa;GET end point" style="whiteSpace=wrap;rounded=1;fillColor=#12AAB5;strokeColor=none;shadow=1;fontColor=#FFFFFF;" vertex="1" parent="1">
          <mxGeometry x="70" y="468" width="230" height="60" as="geometry" />
        </mxCell>
        <mxCell id="LORdBim5rndGrAHslI9i-237" value="updateaccount&#xa;POST end point" style="whiteSpace=wrap;rounded=1;fillColor=#12AAB5;strokeColor=none;shadow=1;fontColor=#FFFFFF;" vertex="1" parent="1">
          <mxGeometry x="70" y="548" width="230" height="60" as="geometry" />
        </mxCell>
        <mxCell id="LORdBim5rndGrAHslI9i-238" value="updateAddress&#xa;POST end point" style="whiteSpace=wrap;rounded=1;fillColor=#12AAB5;strokeColor=none;shadow=1;fontColor=#FFFFFF;" vertex="1" parent="1">
          <mxGeometry x="70" y="628" width="230" height="60" as="geometry" />
        </mxCell>
        <mxCell id="LORdBim5rndGrAHslI9i-240" value="Tech Debt (Fix Sonar issues)" style="whiteSpace=wrap;rounded=1;fillColor=#F2931E;strokeColor=none;shadow=1;fontColor=#FFFFFF;fontStyle=1;fontSize=14" vertex="1" parent="1">
          <mxGeometry x="855" y="200" width="280" height="80" as="geometry" />
        </mxCell>
        <mxCell id="LORdBim5rndGrAHslI9i-241" value="Fix Critical Issues" style="whiteSpace=wrap;rounded=1;fillColor=#12AAB5;strokeColor=none;shadow=1;fontColor=#FFFFFF;" vertex="1" parent="1">
          <mxGeometry x="819" y="317" width="170" height="60" as="geometry" />
        </mxCell>
        <mxCell id="LORdBim5rndGrAHslI9i-242" value="Fix Major and Minor Issues" style="whiteSpace=wrap;rounded=1;fillColor=#12AAB5;strokeColor=none;shadow=1;fontColor=#FFFFFF;" vertex="1" parent="1">
          <mxGeometry x="1002" y="317" width="155" height="60" as="geometry" />
        </mxCell>
        <mxCell id="LORdBim5rndGrAHslI9i-243" value="uca-spectrum &#xa;(1 - 10) Critical Issues" style="whiteSpace=wrap;rounded=1;fillColor=#999999;strokeColor=none;shadow=1;fontColor=#FFFFFF;fontStyle=0" vertex="1" parent="1">
          <mxGeometry x="819" y="417" width="135" height="50" as="geometry" />
        </mxCell>
        <mxCell id="LORdBim5rndGrAHslI9i-244" value="uca-spectrum &#xa;(11 - 20) Critical Issues" style="whiteSpace=wrap;rounded=1;fillColor=#999999;strokeColor=none;shadow=1;fontColor=#FFFFFF;fontStyle=0" vertex="1" parent="1">
          <mxGeometry x="819" y="497" width="135" height="50" as="geometry" />
        </mxCell>
        <mxCell id="LORdBim5rndGrAHslI9i-245" value="uca-spectrum &#xa;(21 - 30) Critical Issues" style="whiteSpace=wrap;rounded=1;fillColor=#999999;strokeColor=none;shadow=1;fontColor=#FFFFFF;fontStyle=0" vertex="1" parent="1">
          <mxGeometry x="819" y="577" width="135" height="50" as="geometry" />
        </mxCell>
        <mxCell id="LORdBim5rndGrAHslI9i-246" value="uca-spectrum &#xa;(31 - 40) Critical Issues" style="whiteSpace=wrap;rounded=1;fillColor=#999999;strokeColor=none;shadow=1;fontColor=#FFFFFF;fontStyle=0" vertex="1" parent="1">
          <mxGeometry x="819" y="657" width="135" height="50" as="geometry" />
        </mxCell>
        <mxCell id="LORdBim5rndGrAHslI9i-247" value="cap-ui &#xa;(1 Minor Issue)" style="whiteSpace=wrap;rounded=1;fillColor=#999999;strokeColor=none;shadow=1;fontColor=#FFFFFF;fontStyle=0" vertex="1" parent="1">
          <mxGeometry x="1019" y="417" width="135" height="50" as="geometry" />
        </mxCell>
        <mxCell id="LORdBim5rndGrAHslI9i-248" value="uca-spectrum : 5 Minor Issues" style="whiteSpace=wrap;rounded=1;fillColor=#999999;strokeColor=none;shadow=1;fontColor=#FFFFFF;fontStyle=0" vertex="1" parent="1">
          <mxGeometry x="1019" y="497" width="135" height="50" as="geometry" />
        </mxCell>
        <mxCell id="LORdBim5rndGrAHslI9i-249" value="uca-spectrum &#xa;(26 Major Issues)" style="whiteSpace=wrap;rounded=1;fillColor=#999999;strokeColor=none;shadow=1;fontColor=#FFFFFF;fontStyle=0" vertex="1" parent="1">
          <mxGeometry x="1019" y="577" width="135" height="50" as="geometry" />
        </mxCell>
        <mxCell id="LORdBim5rndGrAHslI9i-251" value="" style="edgeStyle=elbowEdgeStyle;elbow=vertical;rounded=0;fontColor=#000000;endArrow=none;endFill=0;strokeWidth=3;strokeColor=#23445D;entryX=0.435;entryY=-0.034;entryDx=0;entryDy=0;entryPerimeter=0;" edge="1" parent="1" target="LORdBim5rndGrAHslI9i-241">
          <mxGeometry width="100" height="100" relative="1" as="geometry">
            <mxPoint x="994" y="280" as="sourcePoint" />
            <mxPoint x="895" y="307" as="targetPoint" />
            <Array as="points">
              <mxPoint x="945" y="300" />
            </Array>
          </mxGeometry>
        </mxCell>
        <mxCell id="LORdBim5rndGrAHslI9i-252" value="" style="edgeStyle=elbowEdgeStyle;elbow=vertical;rounded=0;fontColor=#000000;endArrow=none;endFill=0;strokeWidth=3;strokeColor=#23445D;" edge="1" parent="1">
          <mxGeometry width="100" height="100" relative="1" as="geometry">
            <mxPoint x="994" y="281" as="sourcePoint" />
            <mxPoint x="1092.72" y="319" as="targetPoint" />
          </mxGeometry>
        </mxCell>
        <mxCell id="LORdBim5rndGrAHslI9i-253" value="" style="edgeStyle=elbowEdgeStyle;elbow=horizontal;rounded=0;fontColor=#000000;endArrow=none;endFill=0;strokeWidth=3;strokeColor=#23445D;" edge="1" parent="1">
          <mxGeometry width="100" height="100" relative="1" as="geometry">
            <mxPoint x="820" y="347" as="sourcePoint" />
            <mxPoint x="820" y="442" as="targetPoint" />
            <Array as="points">
              <mxPoint x="800" y="397" />
            </Array>
          </mxGeometry>
        </mxCell>
        <mxCell id="LORdBim5rndGrAHslI9i-254" value="" style="edgeStyle=elbowEdgeStyle;elbow=horizontal;rounded=0;fontColor=#000000;endArrow=none;endFill=0;strokeWidth=3;strokeColor=#23445D;" edge="1" parent="1">
          <mxGeometry width="100" height="100" relative="1" as="geometry">
            <mxPoint x="820" y="347" as="sourcePoint" />
            <mxPoint x="820" y="522" as="targetPoint" />
            <Array as="points">
              <mxPoint x="800" y="437" />
            </Array>
          </mxGeometry>
        </mxCell>
        <mxCell id="LORdBim5rndGrAHslI9i-255" value="" style="edgeStyle=elbowEdgeStyle;elbow=horizontal;rounded=0;fontColor=#000000;endArrow=none;endFill=0;strokeWidth=3;strokeColor=#23445D;" edge="1" parent="1">
          <mxGeometry width="100" height="100" relative="1" as="geometry">
            <mxPoint x="820" y="347" as="sourcePoint" />
            <mxPoint x="820" y="682" as="targetPoint" />
            <Array as="points">
              <mxPoint x="800" y="517" />
            </Array>
          </mxGeometry>
        </mxCell>
        <mxCell id="LORdBim5rndGrAHslI9i-256" value="" style="edgeStyle=elbowEdgeStyle;elbow=horizontal;rounded=0;fontColor=#000000;endArrow=none;endFill=0;strokeWidth=3;strokeColor=#23445D;exitX=0;exitY=0.5;exitDx=0;exitDy=0;" edge="1" parent="1" source="LORdBim5rndGrAHslI9i-241">
          <mxGeometry width="100" height="100" relative="1" as="geometry">
            <mxPoint x="820" y="347" as="sourcePoint" />
            <mxPoint x="820" y="602" as="targetPoint" />
            <Array as="points">
              <mxPoint x="800" y="487" />
            </Array>
          </mxGeometry>
        </mxCell>
        <mxCell id="LORdBim5rndGrAHslI9i-257" value="" style="edgeStyle=elbowEdgeStyle;elbow=horizontal;rounded=0;fontColor=#000000;endArrow=none;endFill=0;strokeWidth=3;strokeColor=#23445D;entryX=1;entryY=0.5;entryDx=0;entryDy=0;exitX=1;exitY=0.5;exitDx=0;exitDy=0;" edge="1" parent="1">
          <mxGeometry width="100" height="100" relative="1" as="geometry">
            <mxPoint x="1159" y="347" as="sourcePoint" />
            <mxPoint x="1154" y="442" as="targetPoint" />
            <Array as="points">
              <mxPoint x="1174" y="397" />
            </Array>
          </mxGeometry>
        </mxCell>
        <mxCell id="LORdBim5rndGrAHslI9i-258" value="" style="edgeStyle=elbowEdgeStyle;elbow=horizontal;rounded=0;fontColor=#000000;endArrow=none;endFill=0;strokeWidth=3;strokeColor=#23445D;entryX=1;entryY=0.5;entryDx=0;entryDy=0;" edge="1" parent="1" target="LORdBim5rndGrAHslI9i-248">
          <mxGeometry width="100" height="100" relative="1" as="geometry">
            <mxPoint x="1164" y="347" as="sourcePoint" />
            <mxPoint x="1193.9999999999995" y="527" as="targetPoint" />
            <Array as="points">
              <mxPoint x="1174" y="437" />
            </Array>
          </mxGeometry>
        </mxCell>
        <mxCell id="LORdBim5rndGrAHslI9i-260" value="" style="edgeStyle=elbowEdgeStyle;elbow=horizontal;rounded=0;fontColor=#000000;endArrow=none;endFill=0;strokeWidth=3;strokeColor=#23445D;exitX=1;exitY=0.5;exitDx=0;exitDy=0;entryX=1;entryY=0.5;entryDx=0;entryDy=0;" edge="1" parent="1">
          <mxGeometry width="100" height="100" relative="1" as="geometry">
            <mxPoint x="1160" y="347" as="sourcePoint" />
            <mxPoint x="1155" y="602" as="targetPoint" />
            <Array as="points">
              <mxPoint x="1175" y="487" />
            </Array>
          </mxGeometry>
        </mxCell>
        <mxCell id="LORdBim5rndGrAHslI9i-261" value="uca-spectrum &#xa;(41 - 49) Critical Issues" style="whiteSpace=wrap;rounded=1;fillColor=#999999;strokeColor=none;shadow=1;fontColor=#FFFFFF;fontStyle=0" vertex="1" parent="1">
          <mxGeometry x="819" y="730" width="135" height="50" as="geometry" />
        </mxCell>
        <mxCell id="LORdBim5rndGrAHslI9i-262" value="" style="edgeStyle=elbowEdgeStyle;elbow=horizontal;rounded=0;fontColor=#000000;endArrow=none;endFill=0;strokeWidth=3;strokeColor=#23445D;entryX=0;entryY=0.5;entryDx=0;entryDy=0;" edge="1" parent="1" target="LORdBim5rndGrAHslI9i-261">
          <mxGeometry width="100" height="100" relative="1" as="geometry">
            <mxPoint x="820" y="682" as="sourcePoint" />
            <mxPoint x="823" y="767.5" as="targetPoint" />
            <Array as="points">
              <mxPoint x="800" y="995" />
            </Array>
          </mxGeometry>
        </mxCell>
        <mxCell id="LORdBim5rndGrAHslI9i-264" value="Testing" style="whiteSpace=wrap;rounded=1;fillColor=#F2931E;strokeColor=none;shadow=1;fontColor=#FFFFFF;fontStyle=1;fontSize=14" vertex="1" parent="1">
          <mxGeometry x="1230" y="195" width="230" height="85" as="geometry" />
        </mxCell>
        <mxCell id="LORdBim5rndGrAHslI9i-265" value="" style="edgeStyle=elbowEdgeStyle;elbow=horizontal;rounded=0;fontColor=#000000;endArrow=none;endFill=0;strokeWidth=3;strokeColor=#23445D;" edge="1" parent="1">
          <mxGeometry width="100" height="100" relative="1" as="geometry">
            <mxPoint x="1230" y="232" as="sourcePoint" />
            <mxPoint x="1230" y="332" as="targetPoint" />
            <Array as="points">
              <mxPoint x="1210" y="282" />
            </Array>
          </mxGeometry>
        </mxCell>
        <mxCell id="LORdBim5rndGrAHslI9i-266" value="" style="edgeStyle=elbowEdgeStyle;elbow=horizontal;rounded=0;fontColor=#000000;endArrow=none;endFill=0;strokeWidth=3;strokeColor=#23445D;" edge="1" parent="1">
          <mxGeometry width="100" height="100" relative="1" as="geometry">
            <mxPoint x="1230" y="232" as="sourcePoint" />
            <mxPoint x="1230" y="412" as="targetPoint" />
            <Array as="points">
              <mxPoint x="1210" y="302" />
            </Array>
          </mxGeometry>
        </mxCell>
        <mxCell id="LORdBim5rndGrAHslI9i-267" value="" style="edgeStyle=elbowEdgeStyle;elbow=horizontal;rounded=0;fontColor=#000000;endArrow=none;endFill=0;strokeWidth=3;strokeColor=#23445D;" edge="1" parent="1">
          <mxGeometry width="100" height="100" relative="1" as="geometry">
            <mxPoint x="1230" y="232" as="sourcePoint" />
            <mxPoint x="1230.0000000000005" y="652" as="targetPoint" />
            <Array as="points">
              <mxPoint x="1210" y="442" />
            </Array>
          </mxGeometry>
        </mxCell>
        <mxCell id="LORdBim5rndGrAHslI9i-268" value="" style="edgeStyle=elbowEdgeStyle;elbow=horizontal;rounded=0;fontColor=#000000;endArrow=none;endFill=0;strokeWidth=3;strokeColor=#23445D;" edge="1" parent="1">
          <mxGeometry width="100" height="100" relative="1" as="geometry">
            <mxPoint x="1230" y="232" as="sourcePoint" />
            <mxPoint x="1230.0000000000002" y="572" as="targetPoint" />
            <Array as="points">
              <mxPoint x="1210" y="312" />
            </Array>
          </mxGeometry>
        </mxCell>
        <mxCell id="LORdBim5rndGrAHslI9i-269" value="" style="edgeStyle=elbowEdgeStyle;elbow=horizontal;rounded=0;fontColor=#000000;endArrow=none;endFill=0;strokeWidth=3;strokeColor=#23445D;" edge="1" parent="1">
          <mxGeometry width="100" height="100" relative="1" as="geometry">
            <mxPoint x="1210" y="230" as="sourcePoint" />
            <mxPoint x="1230" y="492" as="targetPoint" />
            <Array as="points">
              <mxPoint x="1210" y="332" />
            </Array>
          </mxGeometry>
        </mxCell>
        <mxCell id="LORdBim5rndGrAHslI9i-270" value="Manual Testing" style="whiteSpace=wrap;rounded=1;fillColor=#12AAB5;strokeColor=none;shadow=1;fontColor=#FFFFFF;" vertex="1" parent="1">
          <mxGeometry x="1230" y="300" width="230" height="60" as="geometry" />
        </mxCell>
        <mxCell id="LORdBim5rndGrAHslI9i-271" value="Automated Testing" style="whiteSpace=wrap;rounded=1;fillColor=#12AAB5;strokeColor=none;shadow=1;fontColor=#FFFFFF;" vertex="1" parent="1">
          <mxGeometry x="1230" y="382" width="230" height="60" as="geometry" />
        </mxCell>
        <mxCell id="LORdBim5rndGrAHslI9i-272" value="Regression Testing" style="whiteSpace=wrap;rounded=1;fillColor=#12AAB5;strokeColor=none;shadow=1;fontColor=#FFFFFF;" vertex="1" parent="1">
          <mxGeometry x="1230" y="462" width="230" height="60" as="geometry" />
        </mxCell>
        <mxCell id="LORdBim5rndGrAHslI9i-273" value="Performance Testing" style="whiteSpace=wrap;rounded=1;fillColor=#12AAB5;strokeColor=none;shadow=1;fontColor=#FFFFFF;" vertex="1" parent="1">
          <mxGeometry x="1230" y="542" width="230" height="60" as="geometry" />
        </mxCell>
        <mxCell id="LORdBim5rndGrAHslI9i-274" value="UAT &amp; BAT" style="whiteSpace=wrap;rounded=1;fillColor=#12AAB5;strokeColor=none;shadow=1;fontColor=#FFFFFF;" vertex="1" parent="1">
          <mxGeometry x="1230" y="622" width="230" height="60" as="geometry" />
        </mxCell>
        <mxCell id="LORdBim5rndGrAHslI9i-286" value="" style="edgeStyle=elbowEdgeStyle;elbow=vertical;rounded=0;fontColor=#000000;endArrow=none;endFill=0;strokeWidth=3;strokeColor=#23445D;entryX=0.5;entryY=0;entryDx=0;entryDy=0;exitX=0.5;exitY=1;exitDx=0;exitDy=0;" edge="1" parent="1">
          <mxGeometry width="100" height="100" relative="1" as="geometry">
            <mxPoint x="945" y="100" as="sourcePoint" />
            <mxPoint x="1684" y="200" as="targetPoint" />
            <Array as="points">
              <mxPoint x="1388" y="156" />
            </Array>
          </mxGeometry>
        </mxCell>
        <mxCell id="LORdBim5rndGrAHslI9i-287" value="Release" style="whiteSpace=wrap;rounded=1;fillColor=#F2931E;strokeColor=none;shadow=1;fontColor=#FFFFFF;fontStyle=1;fontSize=14" vertex="1" parent="1">
          <mxGeometry x="1556" y="195" width="280" height="80" as="geometry" />
        </mxCell>
        <mxCell id="LORdBim5rndGrAHslI9i-288" value="Dark" style="whiteSpace=wrap;rounded=1;fillColor=#12AAB5;strokeColor=none;shadow=1;fontColor=#FFFFFF;" vertex="1" parent="1">
          <mxGeometry x="1519" y="320" width="170" height="60" as="geometry" />
        </mxCell>
        <mxCell id="LORdBim5rndGrAHslI9i-289" value="Live" style="whiteSpace=wrap;rounded=1;fillColor=#12AAB5;strokeColor=none;shadow=1;fontColor=#FFFFFF;" vertex="1" parent="1">
          <mxGeometry x="1724" y="321" width="155" height="60" as="geometry" />
        </mxCell>
        <mxCell id="LORdBim5rndGrAHslI9i-290" value="" style="edgeStyle=elbowEdgeStyle;elbow=vertical;rounded=0;fontColor=#000000;endArrow=none;endFill=0;strokeWidth=3;strokeColor=#23445D;entryX=0.435;entryY=-0.034;entryDx=0;entryDy=0;entryPerimeter=0;" edge="1" parent="1" target="LORdBim5rndGrAHslI9i-288">
          <mxGeometry width="100" height="100" relative="1" as="geometry">
            <mxPoint x="1695" y="275" as="sourcePoint" />
            <mxPoint x="1596" y="302" as="targetPoint" />
            <Array as="points" />
          </mxGeometry>
        </mxCell>
        <mxCell id="LORdBim5rndGrAHslI9i-291" value="" style="edgeStyle=elbowEdgeStyle;elbow=vertical;rounded=0;fontColor=#000000;endArrow=none;endFill=0;strokeWidth=3;strokeColor=#23445D;entryX=0.5;entryY=0;entryDx=0;entryDy=0;" edge="1" parent="1" target="LORdBim5rndGrAHslI9i-289">
          <mxGeometry width="100" height="100" relative="1" as="geometry">
            <mxPoint x="1695" y="274" as="sourcePoint" />
            <mxPoint x="1798" y="318" as="targetPoint" />
            <Array as="points">
              <mxPoint x="1750" y="297" />
            </Array>
          </mxGeometry>
        </mxCell>
      </root>
    </mxGraphModel>
  </diagram>
</mxfile>
